<svg class="w-6 h-6" width="24" height="24" viewBox="0 0 24 24" fill="none" xmlns="http://www.w3.org/2000/svg"><path d="M19.7895 5.65001C20.2214 5.36433 20.7938 5.4576 21.1147 5.8502L21.1752 5.93224L21.391 6.27208C22.4386 7.9889 22.9972 9.96278 23.0014 11.9791C23.0058 14.1298 22.3789 16.2343 21.1996 18.0328C20.0203 19.8314 18.3398 21.2448 16.3656 22.0983C14.3915 22.9516 12.2103 23.2077 10.0922 22.8346C9.54848 22.7386 9.18584 22.2202 9.28164 21.6764C9.37755 21.1326 9.896 20.769 10.4398 20.8649C12.1728 21.1701 13.9575 20.9605 15.5727 20.2623C17.1877 19.564 18.563 18.4076 19.5277 16.9361C20.4925 15.4646 21.005 13.7426 21.0014 11.983C20.998 10.3334 20.541 8.71866 19.684 7.31407L19.5072 7.03575L19.4545 6.94786C19.219 6.49906 19.3576 5.9357 19.7895 5.65001Z" fill="#686583" style="fill-opacity:1;"/><path d="M7.63936 1.90078C9.61418 1.0481 11.7956 0.793083 13.9138 1.16738C14.4575 1.26347 14.8202 1.78186 14.7243 2.32558C14.6282 2.86938 14.1099 3.23311 13.5661 3.13711C11.833 2.83082 10.0481 3.03912 8.43233 3.73672C6.81661 4.43435 5.44082 5.59052 4.4753 7.06191C3.50977 8.53344 2.99648 10.256 2.99971 12.016C3.00276 13.6659 3.45918 15.281 4.31612 16.6859L4.49288 16.9643L4.54561 17.0521C4.78114 17.501 4.64252 18.0643 4.21065 18.35C3.77869 18.6357 3.2063 18.5424 2.88546 18.1498L2.82491 18.0678L2.60909 17.7279C1.56152 16.0107 1.00347 14.0366 0.999713 12.0199C0.995766 9.86895 1.62251 7.76368 2.80245 5.96523C3.98254 4.1667 5.66446 2.75349 7.63936 1.90078Z" fill="#686583" style="fill-opacity:1;"/><path d="M14 12C14 10.8954 13.1046 10 12 10C10.8954 10 10 10.8954 10 12C10 13.1046 10.8954 14 12 14C13.1046 14 14 13.1046 14 12ZM16 12C16 14.2091 14.2091 16 12 16C9.79086 16 8 14.2091 8 12C8 9.79086 9.79086 8 12 8C14.2091 8 16 9.79086 16 12Z" fill="#686583" style="fill-opacity:1;"/><path d="M20 5C20 4.44772 19.5523 4 19 4C18.4477 4 18 4.44772 18 5C18 5.55228 18.4477 6 19 6C19.5523 6 20 5.55228 20 5ZM22 5C22 6.65685 20.6569 8 19 8C17.3431 8 16 6.65685 16 5C16 3.34315 17.3431 2 19 2C20.6569 2 22 3.34315 22 5Z" fill="#686583" style="fill-opacity:1;"/><path d="M6 19C6 18.4477 5.55228 18 5 18C4.44772 18 4 18.4477 4 19C4 19.5523 4.44772 20 5 20C5.55228 20 6 19.5523 6 19ZM8 19C8 20.6569 6.65685 22 5 22C3.34315 22 2 20.6569 2 19C2 17.3431 3.34315 16 5 16C6.65685 16 8 17.3431 8 19Z" fill="#686583" style="fill-opacity:1;"/></svg>